<svg width="448" height="448" viewBox="0 0 448 448" fill="none" xmlns="http://www.w3.org/2000/svg">
<style>
    #Book {
        animation: rotate 9s linear infinite;
        -moz-animation: rotate 9s linear infinite;
        transform-origin: center;
        transform-box: fill-box;
    }

    @keyframes rotate {
    from {
        transform: rotateZ(0deg);
    }
    to {
        transform: rotateZ(360deg);
    }

</style>
<g id="Book">
<rect id="Bckg" x="115" y="77" width="237" height="297" fill="#FFC609"/>
<g id="Group">
<path id="Vector" d="M207.23 0.780185C163.897 4.91352 130.83 16.6469 95.8969 40.2469C78.4303 52.1135 50.4303 80.5135 38.1636 99.0469C-37.1697 211.98 2.96361 364.247 123.897 424.514C142.83 433.98 158.83 439.58 179.63 444.114C191.497 446.647 197.23 447.047 223.897 447.047C250.83 447.047 256.297 446.78 268.564 444.114C348.43 426.78 411.097 371.18 436.564 294.914C444.564 271.047 447.497 251.847 447.497 224.514C447.497 188.647 440.697 157.98 425.897 127.047C404.83 83.0469 364.297 42.6469 320.564 21.9802C285.764 5.58019 242.03 -2.68648 207.23 0.780185ZM153.897 207.18V323.847L150.297 324.114C148.164 324.247 145.497 324.38 144.297 324.38C143.097 324.38 142.297 324.78 142.697 325.447C143.097 325.98 142.83 326.514 142.164 326.514C140.83 326.514 137.63 332.647 135.897 338.38C135.23 340.514 135.364 341.18 136.43 340.647C137.23 340.114 137.897 340.514 137.897 341.58C137.897 342.647 139.097 345.047 140.697 347.047C142.83 349.847 143.097 351.047 141.897 352.38C140.83 353.714 140.83 354.514 141.897 355.18C142.697 355.714 143.097 355.314 142.964 354.247C142.564 352.78 159.097 352.514 235.497 352.514C286.697 352.514 327.897 352.247 327.23 352.114C324.83 351.314 325.897 349.18 328.697 349.18C331.23 349.18 331.23 349.047 329.097 346.914C327.897 345.714 327.364 344.514 328.03 344.247C328.697 343.98 329.097 322.647 328.964 295.58C327.63 117.58 327.764 107.847 330.297 107.847C332.43 107.847 332.564 114.78 332.564 233.847V359.847L238.03 359.58C144.43 359.18 143.364 359.18 139.63 356.38C137.63 354.914 134.564 351.314 132.964 348.38L129.897 343.18V221.714V100.247L132.697 96.6469C136.297 91.9802 139.63 90.6469 147.63 90.6469L153.897 90.5135V207.18ZM315.23 93.8469C315.23 96.1135 317.097 98.7802 320.564 101.98L325.897 106.78V227.314V347.847H236.297C186.964 347.847 145.897 347.314 145.097 346.78C140.297 343.58 139.23 334.514 143.23 330.514C145.897 327.847 147.63 327.847 230.964 327.847H315.897L315.63 213.58C315.364 127.314 314.964 99.0469 313.764 97.9802C312.564 96.9135 312.43 96.9135 313.097 98.1135C313.764 99.1802 313.23 99.8469 311.63 99.8469C309.63 99.8469 309.63 100.114 311.23 101.047C312.297 101.847 313.497 102.114 313.897 101.847C314.297 101.58 314.83 102.647 314.83 104.247C315.097 106.514 314.83 106.78 313.897 105.18C313.23 104.114 312.564 103.714 312.564 104.514C312.564 105.18 311.897 104.914 311.23 103.847C310.297 102.514 309.897 102.38 309.897 103.58C309.897 104.514 310.83 105.58 311.897 105.98C313.63 106.647 313.897 120.114 313.897 215.314V323.847H236.564H159.23V207.18V90.5135H237.23H315.23V93.8469Z" fill="#38A6A5"/>
<path id="Vector_2" d="M136.297 95.4469C135.097 96.7802 134.564 98.6469 134.964 99.7135C135.364 100.78 134.964 101.18 134.03 100.647C133.097 99.9802 132.83 100.514 133.364 101.847C134.43 104.514 135.63 103.447 135.897 99.4469C136.03 97.8469 136.83 96.5135 137.63 96.5135C138.564 96.5135 139.23 95.9802 139.364 95.4469C139.63 93.1802 138.297 93.1802 136.297 95.4469Z" fill="#38A6A5"/>
<path id="Vector_3" d="M150.964 209.18C150.697 271.58 150.964 322.514 151.63 322.514C152.164 322.514 152.564 271.447 152.564 209.18C152.564 146.78 152.297 95.8469 151.897 95.8469C151.497 95.8469 151.097 146.914 150.964 209.18Z" fill="#38A6A5"/>
<path id="Vector_4" d="M131.23 105.714C131.23 105.98 132.164 106.647 133.364 107.047C134.43 107.447 134.964 107.314 134.564 106.514C133.764 105.18 131.23 104.647 131.23 105.714Z" fill="#38A6A5"/>
<path id="Vector_5" d="M134.83 332.78C134.297 333.18 133.897 334.247 133.897 335.047C133.897 335.847 134.564 335.714 135.497 334.78C136.297 333.98 136.697 332.914 136.43 332.514C136.03 332.114 135.23 332.247 134.83 332.78Z" fill="#38A6A5"/>
<path id="Vector_6" d="M132.964 342.514C133.497 343.58 134.297 345.58 134.697 346.914C135.23 348.247 136.297 349.047 137.23 348.647C138.164 348.38 139.764 348.78 140.697 349.58C142.164 350.914 142.164 350.78 140.697 348.914C139.764 347.58 138.43 346.914 137.764 347.314C137.097 347.714 136.564 347.314 136.564 346.514C136.564 345.714 135.63 343.98 134.297 342.78C132.697 341.047 132.297 341.047 132.964 342.514Z" fill="#38A6A5"/>
<path id="Vector_7" d="M148.964 356.514C148.964 357.314 151.497 357.58 155.097 357.314C161.63 356.78 161.364 356.38 153.764 355.58C151.097 355.314 148.964 355.714 148.964 356.514Z" fill="#38A6A5"/>
<path id="Vector_8" d="M312.03 94.1136C311.23 95.9802 311.364 96.1136 312.697 94.9136C313.63 93.9802 314.03 92.9136 313.63 92.5136C313.23 92.1136 312.43 92.7802 312.03 94.1136Z" fill="#38A6A5"/>
<path id="Vector_9" d="M185.764 130.914C186.697 131.847 186.697 133.047 185.497 134.38C184.03 136.247 184.164 136.247 186.297 134.647C189.097 132.38 189.23 129.58 186.564 129.58C185.097 129.58 184.964 130.114 185.764 130.914Z" fill="#38A6A5"/>
<path id="Vector_10" d="M198.03 131.447C197.23 132.38 194.964 133.18 193.23 133.18C191.097 133.18 189.897 133.98 189.897 135.18C189.897 136.914 187.497 137.847 184.297 137.314C183.23 137.18 182.697 139.447 183.23 141.847C183.364 142.514 183.764 145.18 183.897 147.714C184.164 150.247 184.83 154.647 185.23 157.447C185.897 160.78 185.497 163.314 184.43 164.647C183.097 166.247 183.097 166.647 184.697 166.247C185.764 165.98 186.83 165.447 187.23 164.914C187.63 164.514 189.364 164.914 191.23 166.114C193.097 167.18 193.63 167.714 192.43 167.314C191.23 167.047 188.697 167.58 186.83 168.514C184.297 169.847 183.23 169.847 182.697 168.78C182.297 167.58 182.03 167.58 182.03 168.78C181.897 169.58 182.564 170.78 183.23 171.18C184.03 171.58 184.564 177.047 184.564 183.314C184.564 190.514 184.03 194.38 183.23 193.847C182.43 193.447 182.297 193.98 182.697 195.047C184.697 200.38 185.897 195.98 185.897 183.18V169.18H193.097C202.164 169.18 204.43 170.114 206.03 174.114C206.83 176.114 207.897 177.047 208.83 176.38C209.764 175.847 209.23 176.78 207.63 178.38C204.297 181.58 203.897 183.18 205.897 184.514C206.697 184.914 207.23 187.314 207.23 189.847C207.23 196.247 203.364 198.514 192.83 198.514C184.83 198.514 184.564 198.647 185.897 201.18C187.364 203.98 189.897 204.78 189.897 202.38C189.897 201.714 189.364 201.447 188.564 201.847C187.897 202.247 187.23 201.98 187.23 201.314C187.23 200.514 188.43 199.847 189.897 199.847C191.364 199.847 192.43 200.514 192.297 201.447C192.03 202.247 193.63 203.047 195.897 203.047C198.43 203.18 199.764 202.514 199.497 201.447C199.097 199.18 201.23 199.447 203.764 201.98C204.964 203.047 205.897 203.447 205.897 202.647C205.897 201.98 204.83 200.647 203.63 199.98C201.364 198.647 201.364 198.647 203.63 198.38C207.764 197.98 208.297 197.847 209.364 196.78C209.897 196.247 209.764 195.847 208.964 195.847C208.03 195.847 207.764 194.647 208.297 192.914C208.964 190.114 209.097 190.114 210.03 193.847C211.23 197.847 209.364 200.514 206.564 198.914C205.897 198.38 206.297 199.314 207.764 200.914C210.43 203.98 213.23 203.58 212.03 200.38C211.63 199.314 211.764 198.514 212.43 198.514C214.297 198.514 222.03 201.98 221.63 202.647C221.364 202.914 221.897 202.514 222.697 201.58C224.83 199.047 227.23 199.447 226.43 202.114C225.764 203.98 225.897 204.114 226.964 202.647C227.897 201.447 228.564 201.314 229.097 202.38C230.164 203.98 232.564 203.18 232.564 201.18C232.564 200.514 231.764 200.247 230.697 200.647C229.63 201.047 228.43 200.647 227.897 199.847C227.497 199.047 227.497 198.514 228.164 198.647C231.23 199.18 232.83 198.38 232.03 196.514C231.63 195.447 231.897 194.514 232.697 194.514C233.497 194.514 233.897 193.714 233.497 192.78C233.097 191.714 233.364 190.114 234.164 189.047C235.23 187.447 235.364 187.447 234.83 189.18C234.564 190.247 234.83 192.247 235.497 193.714C236.297 195.18 236.297 195.847 235.63 195.447C234.964 194.914 234.297 195.447 234.297 196.38C234.297 197.447 235.23 197.98 236.297 197.447C237.764 196.914 238.03 197.314 237.23 198.514C236.564 199.714 236.697 199.98 237.63 199.314C238.564 198.78 239.897 198.78 240.83 199.314C241.897 199.98 241.63 200.647 239.764 201.18C238.43 201.714 236.43 201.58 235.63 200.914C234.43 199.98 233.897 199.98 233.897 201.047C233.897 202.647 234.164 202.78 239.497 203.047C241.497 203.18 242.83 202.914 242.43 202.38C242.164 201.847 242.564 200.914 243.364 200.514C244.297 199.847 243.63 198.914 241.764 197.98C240.03 197.18 238.164 194.647 237.497 192.514C236.83 190.247 235.897 186.914 235.23 184.78C234.564 182.647 234.697 181.18 235.364 181.18C236.03 181.18 236.564 179.98 236.564 178.38C236.564 171.447 243.897 166.78 251.097 169.314C255.764 170.914 257.897 175.447 257.897 183.847C257.897 192.647 255.764 196.78 250.43 198.514C245.364 200.247 243.764 201.847 246.03 203.314C246.964 203.847 247.23 203.714 246.83 202.914C245.63 200.914 252.83 199.714 254.964 201.447C255.764 202.247 256.564 202.647 256.697 202.38C256.697 202.114 256.964 200.247 257.23 198.247C257.497 196.247 258.297 193.58 258.964 192.247C260.03 190.514 260.297 191.18 259.897 195.314C259.63 200.647 259.63 200.647 264.43 200.514C267.764 200.514 269.097 201.047 268.83 202.247C268.697 203.314 269.097 203.714 269.897 203.18C270.564 202.78 271.23 200.514 271.23 198.247C271.23 195.98 271.63 194.514 272.297 195.047C272.83 195.58 273.23 196.78 273.23 197.58C273.23 198.514 274.564 199.314 276.297 199.58C278.297 199.847 279.23 200.78 278.697 201.847C278.03 203.714 281.097 203.847 282.83 201.847C283.497 201.314 282.964 201.18 281.897 201.847C280.697 202.514 280.297 202.514 280.964 201.714C282.164 200.514 282.697 200.38 286.964 199.98C288.297 199.847 288.697 199.447 287.764 198.78C287.097 198.247 284.964 194.38 283.364 190.114C280.83 183.98 280.564 182.114 281.897 180.514C282.83 179.447 284.03 178.78 284.564 179.18C285.097 179.58 286.297 178.914 287.097 177.98C288.164 176.647 288.297 175.847 287.23 175.18C286.43 174.78 286.297 173.714 286.697 172.914C287.23 171.98 286.964 171.847 286.03 172.38C284.83 173.18 284.697 172.38 285.364 169.714C286.03 166.914 285.897 166.38 284.564 167.18C283.364 167.847 283.097 167.714 283.764 166.78C284.43 165.714 283.23 165.18 280.164 165.18C276.03 165.18 275.497 164.647 274.03 159.847C272.164 153.58 269.897 153.98 269.897 160.647C269.897 164.78 269.63 165.18 265.897 165.18H261.897V150.514V135.847H265.897C269.764 135.847 269.897 136.114 270.03 141.447V147.18L272.964 141.447C275.364 136.514 276.297 135.847 280.164 135.847C284.297 135.847 284.564 136.114 283.23 138.514C282.164 140.647 282.164 141.447 283.764 141.98C284.83 142.38 285.364 143.714 284.964 144.914C284.43 146.914 284.564 146.914 285.764 145.18C286.964 143.58 287.23 143.447 287.23 145.047C287.23 146.114 287.63 146.514 288.164 146.114C288.564 145.58 287.897 143.98 286.564 142.514C285.23 141.047 284.564 139.447 285.097 138.914C285.63 138.38 286.564 138.647 287.097 139.58C287.764 140.647 288.03 139.447 288.03 136.647C287.897 133.714 287.497 132.38 286.697 133.18C284.43 135.447 282.83 134.647 284.697 132.247C286.297 130.38 286.297 130.247 284.697 131.047C283.63 131.714 282.564 131.58 281.897 130.514C281.23 129.314 280.697 129.314 280.03 130.38C279.497 131.18 279.764 131.847 280.43 131.847C281.23 131.847 281.897 132.38 281.897 133.047C281.897 133.714 280.83 134.114 279.63 133.847C278.297 133.714 276.297 133.98 275.23 134.514C274.03 135.18 272.564 134.78 271.497 133.714C269.897 131.847 270.43 131.18 273.23 131.847C273.897 131.98 274.03 131.58 273.497 131.047C272.964 130.38 270.83 129.847 268.83 129.58C266.564 129.447 266.03 129.58 267.23 130.247C269.497 131.314 270.564 134.514 268.697 134.514C267.897 134.514 266.964 133.847 266.564 133.18C266.164 132.38 264.297 132.247 262.43 132.647C260.43 133.18 259.23 132.914 259.23 131.847C259.23 131.047 259.897 130.78 260.83 131.314C261.764 131.98 261.897 131.714 261.23 130.647C260.564 129.314 259.897 129.314 258.697 130.514C257.63 131.58 257.764 132.38 259.497 133.714C260.964 134.78 261.364 135.98 260.564 137.18C259.897 138.247 259.764 139.58 260.03 140.114C260.43 140.647 260.164 141.18 259.364 141.18C258.697 141.18 257.63 139.98 257.23 138.514C256.83 137.047 255.63 135.847 254.83 135.847C253.897 135.847 254.03 135.18 255.23 134.38C256.83 133.18 256.697 133.047 254.297 133.58C252.43 133.98 251.23 133.58 251.23 132.78C251.23 131.847 250.564 132.114 249.897 133.18C248.697 134.914 248.03 134.247 248.297 131.714C248.43 131.18 247.23 131.047 245.897 131.447C244.43 131.847 243.23 131.447 243.23 130.647C243.23 129.847 242.43 129.18 241.63 129.18C240.697 129.314 241.364 130.514 243.23 132.114C246.43 134.78 246.43 134.78 243.63 133.98C241.63 133.314 240.564 133.58 240.564 134.514C240.564 135.314 239.23 135.847 237.63 135.58C236.03 135.314 234.564 135.98 234.297 137.18C233.764 138.78 233.897 138.78 234.964 137.314C235.897 136.114 236.564 135.98 237.097 137.047C237.63 137.847 237.23 138.914 236.03 139.314C234.964 139.714 234.164 140.78 234.43 141.58C234.564 142.514 234.164 141.847 233.364 140.247C232.164 137.314 228.564 135.447 221.63 133.714C218.83 133.047 217.097 133.714 213.63 137.047C211.23 139.18 209.097 140.914 208.964 140.647C207.897 139.58 210.43 135.847 212.83 135.047C214.297 134.647 215.097 133.447 214.697 132.514C214.297 131.18 214.83 130.914 216.297 131.314C218.164 131.98 218.297 131.847 216.564 130.647C213.63 128.514 212.43 128.914 212.83 131.447C213.097 133.047 212.297 133.98 210.164 134.247C208.564 134.514 207.497 135.314 207.897 135.98C208.43 136.647 208.03 137.18 207.364 137.18C206.564 137.18 205.897 136.514 205.897 135.714C205.897 135.047 205.23 134.78 204.297 135.314C203.364 135.847 203.23 135.714 203.764 134.647C204.297 133.847 205.364 133.447 206.03 133.847C206.697 134.38 207.23 133.98 207.23 133.18C207.23 132.114 206.297 131.98 204.964 132.514C199.764 134.647 197.497 134.914 198.43 133.314C198.964 132.514 199.897 132.114 200.564 132.514C201.097 132.914 202.164 132.38 202.964 131.447C204.964 129.047 200.297 129.18 198.03 131.447ZM204.964 138.247C208.697 141.58 207.897 145.18 203.23 145.18C200.43 145.18 199.23 144.514 199.23 143.047C199.23 141.847 198.43 141.18 197.63 141.447C196.43 141.847 195.897 144.914 195.897 150.514C195.897 156.114 196.43 159.18 197.63 159.447C198.43 159.847 199.23 159.18 199.23 157.98C199.23 156.514 200.43 155.847 203.23 155.847C206.03 155.847 207.23 156.514 207.23 158.114C207.23 160.78 203.497 165.18 200.964 165.18C200.03 165.18 199.23 165.714 199.23 166.38C199.23 168.38 191.897 165.447 188.964 162.247C185.63 158.514 185.63 144.78 188.964 139.18C191.23 135.58 192.03 135.18 196.964 135.58C200.03 135.847 203.63 137.047 204.964 138.247ZM229.764 139.314C232.964 143.314 233.63 154.78 231.097 160.38C229.097 164.78 223.097 167.18 218.297 165.58C214.964 164.38 213.63 162.647 209.897 154.514C208.564 151.714 212.03 139.447 214.83 137.58C216.03 136.647 219.364 135.847 222.03 135.847C225.897 135.847 227.63 136.647 229.764 139.314ZM255.23 138.78C257.364 141.047 257.897 143.447 257.897 150.647C257.897 162.247 255.364 165.847 247.23 165.847C239.097 165.847 236.564 162.247 236.564 150.647C236.564 143.447 237.097 141.047 239.23 138.78C242.964 134.78 251.497 134.78 255.23 138.78ZM273.897 137.714C273.897 138.114 273.364 138.78 272.564 139.18C271.897 139.58 271.23 139.314 271.23 138.647C271.23 137.847 271.897 137.18 272.564 137.18C273.364 137.18 273.897 137.447 273.897 137.714ZM186.43 141.714C185.764 143.58 185.23 143.714 184.43 142.38C183.764 141.314 184.03 140.114 184.964 139.58C186.964 138.38 187.497 139.047 186.43 141.714ZM260.164 147.447C259.764 148.78 259.497 147.98 259.497 145.847C259.497 143.58 259.764 142.647 260.164 143.447C260.43 144.38 260.43 146.247 260.164 147.447ZM202.164 147.047C203.097 146.514 203.23 146.78 202.697 147.58C202.164 148.514 202.297 149.18 203.097 149.18C203.764 149.18 204.564 148.514 204.83 147.58C205.63 145.447 208.564 147.447 208.564 150.114C208.564 151.447 207.764 151.847 206.43 151.314C204.564 150.647 204.43 150.78 205.764 152.38C207.23 154.114 206.964 154.247 204.164 153.714C202.164 153.447 199.897 153.98 198.697 155.314C196.697 157.18 196.564 156.78 196.83 150.78C197.097 145.18 197.364 144.514 198.964 145.98C199.897 147.047 201.364 147.447 202.164 147.047ZM260.43 158.38C260.164 161.447 260.83 164.514 261.897 165.98C262.964 167.314 263.23 167.98 262.43 167.447C261.497 166.914 260.03 167.58 259.097 168.78C258.03 169.98 257.897 170.647 258.697 170.114C259.63 169.58 260.164 171.447 260.164 175.58L260.297 181.847L258.964 176.114C258.297 172.914 256.83 169.98 255.764 169.58C254.297 169.047 254.297 168.514 256.297 166.647C257.63 165.447 258.03 164.914 257.364 165.447C256.564 166.114 255.364 166.514 254.697 166.514C253.897 166.514 254.297 165.847 255.497 165.047C256.83 164.38 258.297 161.314 258.697 158.514C259.764 151.714 260.83 151.58 260.43 158.38ZM239.23 165.18C240.03 165.18 240.564 166.114 240.564 167.18C240.564 168.247 239.897 169.18 239.097 169.18C238.43 169.18 238.164 168.514 238.564 167.847C238.964 167.047 238.697 166.514 238.03 166.514C236.564 166.514 236.164 167.714 236.164 172.114C236.164 173.447 235.764 174.514 235.23 174.514C234.564 174.514 234.43 175.847 234.83 177.447C235.23 179.18 235.097 180.114 234.564 179.58C232.964 178.114 232.564 171.447 234.03 169.714C234.83 168.647 234.697 167.847 233.364 167.447C231.897 166.914 231.63 167.314 232.164 168.914C232.964 170.914 232.83 171.047 230.43 169.18C229.097 168.114 227.764 167.18 227.497 167.047C227.364 167.047 228.43 165.847 230.03 164.38C231.764 162.78 232.564 162.514 232.297 163.714C232.03 164.647 232.564 165.714 233.364 165.98C234.03 166.38 234.697 165.047 234.697 163.18C234.697 161.314 234.164 159.847 233.497 159.847C232.964 159.847 232.83 159.18 233.364 158.247C234.03 157.18 234.964 158.114 236.164 160.914C237.097 163.314 238.564 165.18 239.23 165.18ZM214.964 168.914C213.897 170.114 213.097 170.247 211.63 169.047C210.164 167.847 209.364 167.847 208.164 169.047C206.964 170.38 206.964 170.514 208.564 170.114C209.63 169.847 210.164 169.847 209.63 170.114C208.964 170.514 208.564 171.314 208.564 171.98C208.564 172.78 209.23 172.914 210.164 172.38C211.097 171.847 211.23 171.98 210.697 172.914C209.097 175.447 207.63 174.78 206.697 171.18C206.164 169.314 204.83 167.714 203.497 167.714C201.364 167.58 201.364 167.447 203.63 166.914C204.83 166.647 205.897 165.714 205.897 165.047C205.897 164.38 206.564 163.847 207.364 163.847C208.03 163.847 208.43 164.38 208.03 164.914C207.63 165.58 208.03 166.114 208.964 166.114C209.897 166.114 211.764 166.647 213.23 167.18C214.697 167.714 213.897 166.914 211.497 165.314C209.097 163.714 207.364 161.98 207.764 161.314C208.164 160.647 210.297 161.714 212.43 163.714C215.23 166.247 215.897 167.58 214.964 168.914ZM277.764 166.647C278.964 166.647 278.164 167.314 276.164 167.847C270.83 169.447 267.897 168.247 270.564 165.58C271.764 164.514 272.297 162.914 271.897 162.114C271.497 161.18 272.164 161.847 273.364 163.447C274.564 165.18 276.564 166.514 277.764 166.647ZM229.23 171.98C231.364 174.114 231.897 176.247 231.764 182.914C231.63 192.114 231.097 197.047 229.897 196.914C229.497 196.78 227.497 197.447 225.364 198.38C219.364 200.78 211.23 197.047 211.23 191.58C211.23 190.247 210.697 189.18 210.03 189.18C209.497 189.18 209.497 185.98 210.164 182.114C210.964 178.38 211.497 174.114 211.63 172.914C211.764 171.714 212.164 170.78 212.564 170.78C212.964 170.914 214.164 170.647 215.23 170.114C219.897 168.38 221.364 168.114 223.897 168.78C225.364 169.18 227.764 170.647 229.23 171.98ZM269.897 174.78V180.514L272.697 174.78C275.23 169.847 276.03 169.18 280.03 169.18H284.697L281.23 175.047L277.764 180.914L281.23 189.314C283.097 193.847 284.564 197.847 284.564 198.114C284.564 198.38 282.564 198.514 280.03 198.514C276.297 198.514 275.364 197.98 274.697 195.18C274.164 193.314 273.23 192.114 272.697 192.514C272.03 192.914 271.764 191.847 272.297 190.247C272.697 188.38 272.564 187.714 271.497 188.38C270.564 188.914 269.897 191.447 269.897 193.98C269.897 198.114 269.63 198.514 265.897 198.514H261.897V183.847V169.18H265.897C269.764 169.18 269.897 169.447 269.897 174.78ZM283.23 177.047C282.564 178.514 281.23 180.114 280.297 180.647C279.364 181.314 279.23 180.914 279.897 179.714C282.697 174.78 285.764 172.38 283.23 177.047ZM198.43 201.047C198.83 201.714 197.764 202.114 196.03 201.98C194.297 201.98 193.097 201.447 193.497 200.78C194.297 199.447 197.63 199.58 198.43 201.047ZM211.23 201.18C211.23 201.847 210.964 202.514 210.697 202.514C210.297 202.514 209.63 201.847 209.23 201.18C208.83 200.38 209.097 199.847 209.764 199.847C210.564 199.847 211.23 200.38 211.23 201.18Z" fill="#38A6A5"/>
<path id="Vector_11" d="M219.764 143.047C218.564 146.247 219.897 158.914 221.497 159.447C223.63 160.247 225.097 151.847 224.03 145.847C223.097 141.047 221.097 139.714 219.764 143.047ZM222.697 150.647C222.697 153.447 222.297 155.847 221.897 155.847C221.364 155.847 220.964 153.18 221.097 149.847C221.097 142.647 222.564 143.314 222.697 150.647Z" fill="#38A6A5"/>
<path id="Vector_12" d="M245.364 143.18C244.164 146.247 244.297 157.18 245.63 157.18C246.164 157.18 246.297 154.247 246.164 150.514C245.897 146.914 246.164 143.847 246.83 143.847C248.43 143.847 248.297 155.847 246.697 158.38C245.897 159.58 246.03 159.98 247.364 159.58C249.764 158.78 250.03 142.38 247.764 141.58C246.964 141.314 245.897 141.98 245.364 143.18Z" fill="#38A6A5"/>
<path id="Vector_13" d="M198.83 151.047C198.297 152.38 198.697 152.78 199.897 152.247C200.964 151.847 201.497 151.047 201.097 150.38C200.164 148.78 199.63 148.914 198.83 151.047Z" fill="#38A6A5"/>
<path id="Vector_14" d="M219.764 176.38C218.564 179.58 219.897 192.247 221.497 192.78C223.364 193.447 225.097 183.847 223.897 178.514C222.964 174.38 220.964 173.18 219.764 176.38ZM223.23 181.847C223.23 182.914 222.697 183.847 222.164 183.847C221.497 183.847 220.964 182.914 220.964 181.847C220.964 180.78 221.497 179.847 222.164 179.847C222.697 179.847 223.23 180.78 223.23 181.847ZM223.23 186.114C223.23 186.78 222.564 188.114 221.897 189.18C220.83 190.78 220.564 190.647 220.564 188.114C220.564 186.514 221.23 185.18 221.897 185.18C222.697 185.18 223.23 185.58 223.23 186.114Z" fill="#38A6A5"/>
<path id="Vector_15" d="M208.03 130.914C208.43 132.247 209.23 132.914 209.63 132.514C210.03 132.114 209.63 131.047 208.697 130.114C207.364 128.914 207.23 129.047 208.03 130.914Z" fill="#38A6A5"/>
<path id="Vector_16" d="M220.83 131.58C221.764 132.514 223.497 133.047 224.83 132.78C226.164 132.38 227.497 132.647 227.897 133.18C229.23 135.314 233.63 134.114 232.83 131.847C232.164 130.114 232.43 130.114 234.297 131.714C235.497 132.647 236.564 133.047 236.564 132.38C236.564 131.714 237.23 132.114 237.897 133.18C238.83 134.78 239.097 134.514 238.83 132.247C238.697 130.114 238.164 129.714 237.097 130.647C236.03 131.58 235.097 131.447 234.43 130.38C233.764 129.18 232.964 129.447 231.63 131.18C230.297 133.047 229.497 133.314 228.43 132.247C227.63 131.447 226.03 131.047 224.83 131.447C223.764 131.98 223.097 131.714 223.63 131.047C224.03 130.38 223.23 129.714 221.897 129.714C219.897 129.714 219.764 130.114 220.83 131.58Z" fill="#38A6A5"/>
<path id="Vector_17" d="M253.897 130.514C253.897 131.18 254.564 131.847 255.364 131.847C256.03 131.847 256.297 131.18 255.897 130.514C255.497 129.714 254.83 129.18 254.43 129.18C254.164 129.18 253.897 129.714 253.897 130.514Z" fill="#38A6A5"/>
<path id="Vector_18" d="M182.297 133.314C182.03 136.38 182.697 136.647 183.63 133.847C184.164 132.78 184.03 131.714 183.497 131.314C182.964 130.914 182.297 131.847 182.297 133.314Z" fill="#38A6A5"/>
<path id="Vector_19" d="M279.23 145.18C278.164 147.314 278.564 149.714 281.497 156.78C283.497 161.714 285.897 165.447 286.564 165.047C288.83 164.114 287.497 155.447 284.83 153.18C283.764 152.247 283.63 152.247 284.43 153.314C285.097 154.114 285.364 155.58 285.097 156.514C284.697 157.447 284.964 158.647 285.764 159.18C286.564 159.58 287.23 161.047 287.23 162.247C287.097 164.514 282.564 155.714 281.63 151.847C281.364 150.78 280.697 149.447 279.897 148.914C279.23 148.38 279.764 147.847 281.23 147.847C283.497 147.847 283.497 147.58 281.897 146.514C280.564 145.714 280.43 145.18 281.63 145.18C282.43 145.18 283.23 144.514 283.23 143.847C283.23 141.58 280.697 142.38 279.23 145.18Z" fill="#38A6A5"/>
<path id="Vector_20" d="M284.564 149.047C284.564 149.714 285.63 151.047 286.964 151.98C288.964 153.714 289.097 153.58 287.497 151.58C286.164 149.847 286.164 149.314 287.497 148.78C288.564 148.247 288.43 147.98 286.964 147.98C285.63 147.847 284.564 148.38 284.564 149.047Z" fill="#38A6A5"/>
<path id="Vector_21" d="M193.897 177.18C193.897 178.647 194.697 179.847 195.63 179.847C198.164 179.847 199.23 178.514 198.297 176.38C197.23 173.58 193.897 174.114 193.897 177.18Z" fill="#38A6A5"/>
<path id="Vector_22" d="M245.497 175.447C243.897 176.914 244.43 191.58 246.03 192.647C248.297 193.98 249.897 190.514 249.897 184.247C249.897 176.247 248.164 172.647 245.497 175.447ZM248.164 182.514C248.164 185.447 247.764 187.447 247.097 187.047C245.63 186.114 245.497 177.18 246.964 177.18C247.63 177.18 248.164 179.58 248.164 182.514Z" fill="#38A6A5"/>
<path id="Vector_23" d="M283.63 184.914C284.83 186.247 285.497 187.714 285.097 188.247C284.03 189.18 285.764 194.514 287.097 194.514C287.63 194.514 288.164 193.58 288.164 192.514C288.164 191.447 287.63 190.914 286.964 191.447C286.164 191.847 285.764 191.047 285.897 189.714C286.43 185.314 285.897 184.114 283.63 183.314C281.497 182.514 281.497 182.514 283.63 184.914Z" fill="#38A6A5"/>
<path id="Vector_24" d="M193.897 189.98C193.897 194.38 198.297 193.98 198.964 189.447C199.364 187.18 198.697 186.514 196.697 186.514C194.564 186.514 193.897 187.314 193.897 189.98Z" fill="#38A6A5"/>
</g>
</g>
</svg>
