<?xml version="1.0" standalone="no"?>
<!DOCTYPE svg PUBLIC "-//W3C//DTD SVG 20010904//EN"
 "http://www.w3.org/TR/2001/REC-SVG-20010904/DTD/svg10.dtd">
<svg version="1.0" xmlns="http://www.w3.org/2000/svg"
 width="540.000000pt" height="618.000000pt" viewBox="0 0 540.000000 618.000000"
 preserveAspectRatio="xMidYMid meet">

<g transform="translate(0.000000,618.000000) scale(0.100000,-0.100000)"
fill="#2E383D" stroke="none">
<path d="M4115 5451 c-264 -54 -486 -99 -493 -102 -8 -3 196 -144 452 -315
l467 -311 135 27 c74 15 137 29 139 32 8 8 -142 737 -155 753 -7 8 -24 15 -39
14 -14 -1 -242 -45 -506 -98z"/>
<path d="M2745 5175 c-170 -35 -312 -64 -315 -65 -3 0 205 -140 462 -312 l468
-311 312 62 c172 34 319 64 327 67 14 5 -912 625 -932 623 -7 0 -151 -29 -322
-64z"/>
<path d="M1565 4939 c-159 -33 -296 -62 -303 -64 -7 -3 197 -144 453 -315
l466 -311 307 61 c169 33 315 64 324 68 24 10 -883 615 -927 618 -16 2 -160
-24 -320 -57z"/>
<path d="M613 4746 c-121 -26 -153 -48 -153 -105 0 -40 129 -692 139 -703 5
-5 995 188 1042 204 9 3 -733 506 -906 613 -16 10 -39 9 -122 -9z"/>
<path d="M610 3460 l0 -400 143 0 142 0 400 400 400 400 -543 0 -542 0 0 -400z"/>
<path d="M1835 3460 l-400 -400 335 0 335 0 393 393 c215 215 392 395 392 400
0 4 -147 7 -328 7 l-327 0 -400 -400z"/>
<path d="M3035 3460 l-400 -400 335 0 335 0 393 393 c215 215 392 395 392 400
0 4 -147 7 -328 7 l-327 0 -400 -400z"/>
<path d="M4235 3460 l-400 -400 543 0 542 0 0 400 0 400 -143 0 -142 0 -400
-400z"/>
<path d="M610 1848 c0 -1074 1 -1135 19 -1173 23 -51 81 -102 123 -110 18 -3
936 -4 2039 -3 l2006 3 41 29 c23 16 50 46 62 70 20 42 20 56 20 1179 l0 1137
-2155 0 -2155 0 0 -1132z"/>
</g>
</svg>
