<svg width="2168" height="1384" viewBox="0 0 2168 1384" fill="none" xmlns="http://www.w3.org/2000/svg">

<style>
    #Img {

        transform: translateX(-100%);
        animation: slideInLeft 2s forwards;
        animation-delay: 2s;
        transform-origin: center;
        transform-box: fill-box;
    }

    @keyframes slideInLeft {
        100% {
          transform: translateX(0%);
        }
    }

    #Rigth_disc {
        animation: rotate 2s linear infinite;
        animation-delay: 4s;
        transform-origin: center;
        transform-box: fill-box;
    }

    #Left_disc {
        animation: rotate 2s linear infinite;
        animation-delay: 4s;
        transform-origin: center;
        transform-box: fill-box;
    }

    @keyframes rotate {
        from {
            transform: rotateZ(0deg);
        }
        to {
            transform: rotateZ(360deg);
        }
    }

    #Projection_light {
        opacity: 0;
        animation: flicker 2s linear infinite;
        animation-delay: 5s;
    }

    @keyframes flicker {
        0% {
            opacity: 0.9;
        }
        6% {
            opacity: 0.6;
        }
        12% {
            opacity: 0.9;
        }
        35% {
            opacity: 0.9;
        }
        41% {
            opacity: 0.6;
        }
        47% {
            opacity: 0.9;
        }
        100% {
            opacity: 0.9;
        }
    }
</style>

<g id="Img">
<g id="Projection_light">
<rect id="Rectangle 5" x="1164" width="1004" height="1384" fill="white"/>
<rect id="Rectangle 6" x="626" y="679.088" width="866.557" height="393" transform="rotate(-51.5897 626 679.088)" fill="white"/>
<rect id="Rectangle 7" x="952.75" y="480" width="840.556" height="393" transform="rotate(51.7783 952.75 480)" fill="white"/>
<rect id="Rectangle 8" x="1163.75" y="416" width="359.448" height="393" transform="rotate(51.7783 1163.75 416)" fill="white"/>
</g>
<g id="Camera">
<g id="Camera_body">
<g id="Camera_legs">
<g id="Line 6">
<line x1="358.028" y1="789.533" x2="292.533" y2="972.375" stroke="#A4A4A4" stroke-width="11" stroke-linecap="round"/>
<line x1="358.028" y1="789.533" x2="292.533" y2="972.375" stroke="#A4A4A4" stroke-width="11" stroke-linecap="round"/>
</g>
<g id="Line 7">
<line x1="410.939" y1="788.926" x2="475.846" y2="971.978" stroke="#A4A4A4" stroke-width="11" stroke-linecap="round"/>
<line x1="410.939" y1="788.926" x2="475.846" y2="971.978" stroke="#A4A4A4" stroke-width="11" stroke-linecap="round"/>
</g>
</g>
<ellipse id="Ellipse 8" cx="382.29" cy="592.383" rx="113.9" ry="112.458" fill="#1F262A"/>
<rect id="Rectangle 3" x="542.327" y="652.937" width="83.6229" height="77.8558" fill="#A4A4A4"/>
<rect id="Rectangle 2" x="222.253" y="589.499" width="328.725" height="207.616" rx="2" fill="#2E383D"/>
<g id="Front_lens">
<path id="Polygon 1" d="M615.208 654.755C613.821 653.996 613.821 652.004 615.208 651.245L666.04 623.442C667.373 622.713 669 623.677 669 625.197V680.803C669 682.323 667.373 683.287 666.04 682.558L615.208 654.755Z" fill="#2E383D"/>
<path id="Polygon 2" d="M615.208 731.755C613.821 730.996 613.821 729.004 615.208 728.245L666.04 700.442C667.373 699.713 669 700.677 669 702.197V757.803C669 759.323 667.373 760.287 666.04 759.558L615.208 731.755Z" fill="#2E383D"/>
<rect id="Rectangle 4" x="613" y="652" width="56" height="79" rx="2" fill="#2E383D"/>
</g>
<circle id="Ellipse 9" cx="493.307" cy="768.279" r="8.65065" fill="#A4A4A4"/>
<circle id="Ellipse 11" cx="464.471" cy="768.279" r="8.65065" fill="#A4A4A4"/>
<circle id="Ellipse 10" cx="525.026" cy="768.279" r="8.65065" fill="#A4A4A4"/>
<circle id="Ellipse 14" cx="305.876" cy="624.102" r="8.65065" fill="#A4A4A4"/>
<path id="Ellipse 12" d="M281.691 668.797C281.691 676.939 275.091 683.54 266.948 683.54C258.806 683.54 252.205 676.939 252.205 668.797C252.205 660.654 258.806 654.054 266.948 654.054C275.091 654.054 281.691 660.654 281.691 668.797Z" stroke="#A4A4A4" stroke-width="8"/>
<path id="Ellipse 13" d="M281.691 622.66C281.691 630.802 275.091 637.403 266.948 637.403C258.806 637.403 252.205 630.802 252.205 622.66C252.205 614.518 258.806 607.917 266.948 607.917C275.091 607.917 281.691 614.518 281.691 622.66Z" stroke="#A4A4A4" stroke-width="8"/>
<line id="Line 5" x1="252.205" y1="772.93" x2="298.993" y2="772.93" stroke="#A4A4A4" stroke-width="8" stroke-linecap="round"/>
</g>
<g id="Ground">
<line id="Line 8" x1="249" y1="973.5" x2="575.5" y2="973.5" stroke="#2E383D" stroke-width="11" stroke-linecap="round"/>
<line id="Line 9" x1="157.5" y1="973.5" x2="221.5" y2="973.5" stroke="#2E383D" stroke-width="11" stroke-linecap="round"/>
<line id="Line 10" x1="594" y1="973.5" x2="611.5" y2="973.5" stroke="#2E383D" stroke-width="11" stroke-linecap="round"/>
</g>
<g id="Left_disc">
<g id="Ellipse 1">
<ellipse cx="277.041" cy="477.041" rx="98.0407" ry="98.0407" fill="#2E383D"/>
<ellipse cx="277.041" cy="477.041" rx="98.0407" ry="98.0407" fill="#2E383D"/>
<ellipse cx="277.041" cy="477.041" rx="98.0407" ry="98.0407" fill="#2E383D"/>
<ellipse cx="277.041" cy="477.041" rx="98.0407" ry="98.0407" fill="#2E383D"/>
</g>
<circle id="Ellipse 3" cx="277.041" cy="537.595" r="17.3013" fill="#A4A4A4"/>
<circle id="Ellipse 6" cx="337.595" cy="477.041" r="17.3013" fill="#A4A4A4"/>
<circle id="Ellipse 7" cx="277.041" cy="479.924" r="28.8355" fill="#A4A4A4"/>
<circle id="Ellipse 5" cx="216.486" cy="477.041" r="17.3013" fill="#A4A4A4"/>
<circle id="Ellipse 4" cx="277.041" cy="419.37" r="17.3013" fill="#A4A4A4"/>
</g>
<g id="Rigth_disc">
<g id="Ellipse 2">
<ellipse cx="496.19" cy="477.041" rx="98.0407" ry="98.0407" fill="#2E383D"/>
<ellipse cx="496.19" cy="477.041" rx="98.0407" ry="98.0407" fill="#2E383D"/>
<ellipse cx="496.19" cy="477.041" rx="98.0407" ry="98.0407" fill="#2E383D"/>
<ellipse cx="496.19" cy="477.041" rx="98.0407" ry="98.0407" fill="#2E383D"/>
</g>
<line id="Line 1" x1="496.5" y1="445.287" x2="496.5" y2="401.5" stroke="#A4A4A4" stroke-width="11" stroke-linecap="round"/>
<line id="Line 3" x1="529.5" y1="474.5" x2="573.287" y2="474.5" stroke="#A4A4A4" stroke-width="11" stroke-linecap="round"/>
<line id="Line 4" x1="423.5" y1="474.5" x2="467.287" y2="474.5" stroke="#A4A4A4" stroke-width="11" stroke-linecap="round"/>
<line id="Line 2" x1="496.5" y1="553.287" x2="496.5" y2="509.5" stroke="#A4A4A4" stroke-width="11" stroke-linecap="round"/>
</g>
</g>
</g>


</svg>

